<svg width="166" height="19" viewBox="0 0 166 19" fill="none" xmlns="http://www.w3.org/2000/svg">
<g clip-path="url(#clip0_563_4881)">
<path d="M0 12.4245H0.907526V1.60369H0V-0.000329453H4.61487C5.22787 -0.00787284 5.83953 0.0583875 6.43635 0.196991C6.93979 0.316036 7.41446 0.532357 7.83304 0.833506C8.21169 1.11517 8.51451 1.48458 8.71482 1.90922C8.94464 2.40824 9.05688 2.95234 9.04308 3.50051C9.05976 4.26801 8.8519 5.02394 8.4445 5.67739C8.02654 6.31307 7.3801 6.76808 6.63588 6.95043C7.0193 7.0315 7.38963 7.16429 7.7365 7.34507C8.0886 7.53035 8.4046 7.77605 8.66977 8.07069C8.93728 8.37448 9.15451 8.7182 9.3134 9.08912C9.47468 9.49441 9.55553 9.92662 9.55155 10.3622C9.56389 10.9098 9.43309 11.4513 9.1718 11.9343C8.91763 12.3773 8.5683 12.7597 8.14842 13.0546C7.70312 13.3645 7.20649 13.5949 6.68094 13.7357C6.12751 13.9019 5.55357 13.9918 4.9753 14.003H0V12.4245ZM2.57454 1.60369V6.18661H4.7629C5.45176 6.22839 6.12947 5.99965 6.64875 5.55009C6.88339 5.32605 7.06726 5.0553 7.1882 4.75574C7.30914 4.45618 7.3644 4.13465 7.35032 3.8124C7.38083 3.4945 7.33024 3.17411 7.20318 2.88055C7.07612 2.58698 6.87665 2.32962 6.62301 2.132C6.04727 1.77133 5.37279 1.59568 4.6921 1.62915L2.57454 1.60369ZM2.57454 7.76517V12.4499H4.8337C5.2285 12.4508 5.62191 12.4038 6.00512 12.3099C6.35028 12.2232 6.67716 12.0766 6.97057 11.8771C7.23446 11.688 7.454 11.4448 7.61421 11.1642C7.78079 10.8575 7.86292 10.5128 7.85235 10.1648C7.86378 9.78687 7.7655 9.41358 7.56915 9.08912C7.3886 8.7845 7.13703 8.52698 6.83541 8.33803C6.5175 8.12636 6.16463 7.97126 5.79272 7.87974C5.38721 7.78849 4.97281 7.74153 4.55694 7.73971L2.57454 7.76517Z" fill="#2E2A29"/>
<path d="M22.6112 9.64322L19.8758 10.6425L17.1339 11.6419C17.3404 11.9261 17.6145 12.1556 17.932 12.3102C18.2794 12.4823 18.6634 12.5696 19.0519 12.5648C19.3394 12.5735 19.6254 12.5211 19.8908 12.4114C20.1561 12.3016 20.3946 12.1369 20.5902 11.9283L21.62 13.1313C21.2892 13.46 20.8982 13.7235 20.4679 13.9079C20.0206 14.097 19.5384 14.1923 19.0519 14.1879C18.508 14.1934 17.9689 14.0872 17.4686 13.876C16.9882 13.6788 16.551 13.3913 16.1813 13.0295C15.8146 12.6632 15.5219 12.2312 15.3188 11.7565C15.1108 11.2736 15.0056 10.7536 15.0099 10.2288C15.0059 9.71298 15.1077 9.2017 15.309 8.72582C15.5104 8.24994 15.8071 7.81933 16.1813 7.45997C16.5513 7.10004 16.9885 6.81467 17.4686 6.61977C17.9689 6.40864 18.508 6.30243 19.0519 6.30788C19.4662 6.30661 19.8762 6.39118 20.2555 6.55612C20.6389 6.72643 20.9895 6.96117 21.2918 7.24992C21.607 7.56069 21.8757 7.91433 22.0899 8.30017C22.3245 8.72235 22.4999 9.17419 22.6112 9.64322ZM19.0519 7.94372C18.4334 7.91917 17.8299 8.13639 17.372 8.54841C17.1612 8.74663 16.9923 8.98432 16.8752 9.24767C16.758 9.51102 16.695 9.79477 16.6898 10.0824L18.5756 9.38861L20.4679 8.70118C20.2888 8.48157 20.0707 8.29607 19.8243 8.15377C19.5914 8.01459 19.324 7.94188 19.0519 7.94372Z" fill="#2E2A29"/>
<path d="M28.1523 10.2606C28.1536 9.74397 28.2609 9.23294 28.4677 8.75846C28.8813 7.80213 29.6544 7.04212 30.6239 6.63886C31.1284 6.42611 31.6717 6.31779 32.2201 6.32061C32.5637 6.31602 32.9055 6.36984 33.2306 6.47973C33.5102 6.57416 33.7815 6.69125 34.0416 6.82982C34.2374 6.93226 34.4209 7.05609 34.5887 7.199C34.7239 7.31994 34.7882 7.40268 34.7882 7.44087C34.7888 7.28734 34.8017 7.1341 34.8268 6.98258C34.8578 6.82317 34.8729 6.66115 34.8719 6.49883H36.2686V12.4248H37.8004V14.0034H34.7882V13.2013C34.7369 13.2876 34.6691 13.3633 34.5887 13.4241C34.429 13.5517 34.2565 13.6626 34.0738 13.7551C33.8167 13.8768 33.5497 13.9769 33.2757 14.0543C32.9309 14.142 32.5761 14.1848 32.2201 14.1816C31.6721 14.1864 31.1289 14.0803 30.6239 13.8697C30.1422 13.675 29.7045 13.3872 29.3366 13.0231C28.9699 12.6568 28.6772 12.2248 28.4742 11.7501C28.2653 11.2805 28.1558 10.7736 28.1523 10.2606ZM29.8515 10.2606C29.8515 10.8819 30.1011 11.4777 30.5453 11.917C30.9895 12.3562 31.5919 12.603 32.2201 12.603C32.8483 12.603 33.4508 12.3562 33.895 11.917C34.3392 11.4777 34.5887 10.8819 34.5887 10.2606C34.6008 9.95696 34.5499 9.65405 34.4392 9.37054C34.3286 9.08703 34.1604 8.82891 33.9451 8.61206C33.474 8.19865 32.866 7.97034 32.2362 7.97034C31.6064 7.97034 30.9984 8.19865 30.5274 8.61206C30.3077 8.82331 30.1344 9.07698 30.0181 9.35731C29.9018 9.63763 29.8451 9.93862 29.8515 10.2415V10.2606Z" fill="#2E2A29"/>
<path d="M43.2656 6.49883H46.2778V11.1963C46.2988 11.543 46.4371 11.8725 46.6705 12.132C46.9733 12.4179 47.3783 12.5735 47.7968 12.5648C48.1381 12.5651 48.4764 12.5025 48.7945 12.3802C49.1047 12.266 49.3907 12.0955 49.6376 11.8774C49.8832 11.6647 50.0825 11.4048 50.2233 11.1136C50.3685 10.8246 50.4456 10.5069 50.4486 10.1843V8.08376H49.1098V6.49883H52.1349V12.6221H53.4222V14.0034H50.4486V12.9849L50.5065 12.0938C50.25 12.7256 49.7998 13.262 49.2193 13.6278C48.6256 14.0028 47.9348 14.1996 47.2304 14.1943C46.5428 14.2274 45.8683 13.9997 45.3446 13.5578C45.1182 13.3503 44.937 13.0994 44.8119 12.8203C44.6869 12.5412 44.6207 12.2399 44.6173 11.9347V8.08376H43.2656V6.49883Z" fill="#2E2A29"/>
<path d="M60.541 1.62312H62.2209V6.49883H64.2033V8.12194H62.2209V12.4248H63.7206V14.0033H60.5024V8.12194H58.8418V6.49883H60.541V1.62312Z" fill="#2E2A29"/>
<path d="M70.8005 17.4214H72.622C72.9052 16.8486 73.1884 16.2757 73.4845 15.7029C73.7806 15.13 74.0638 14.5635 74.3598 14.0034L72.8537 11.0436C72.3646 10.0676 71.8625 9.08097 71.3476 8.08376H69.6484V6.49883H74.1539V8.08376H73.079C73.4716 8.81575 73.8642 9.55411 74.2504 10.2925C74.6321 11.0091 74.957 11.754 75.2223 12.5203C75.4886 11.7563 75.8091 11.0118 76.1813 10.2925C76.5675 9.55411 76.9537 8.81575 77.3463 8.08376H76.059V6.49883H80.6932V8.08376H79.0326C78.2646 9.65807 77.4836 11.2069 76.6898 12.7303C75.896 14.2537 75.1043 15.8111 74.3148 17.4024H75.306V18.9809H70.8005V17.4214Z" fill="#2E2A29"/>
<path d="M96.3008 12.4248H97.4336V1.60402H96.3008V0H106.148V3.08074H104.552V1.57856H99.1199V6.16147H105.376V7.74003H99.1199V12.4248H101.205V14.0033H96.3137L96.3008 12.4248Z" fill="#2E2A29"/>
<path d="M113.635 12.4248H115.051V8.08374H113.635V6.49882H116.73V12.4248H118.121V14.0033H113.615L113.635 12.4248ZM114.87 3.60267C114.865 3.45996 114.891 3.31784 114.947 3.18603C115.002 3.05421 115.086 2.93579 115.192 2.83885C115.286 2.74435 115.397 2.66927 115.521 2.61801C115.644 2.56676 115.776 2.54035 115.91 2.54035C116.043 2.54035 116.176 2.56676 116.299 2.61801C116.422 2.66927 116.534 2.74435 116.627 2.83885C116.732 2.93656 116.815 3.05511 116.871 3.18675C116.926 3.31838 116.953 3.46012 116.949 3.60267C116.954 3.74248 116.927 3.88156 116.872 4.01019C116.816 4.13882 116.733 4.2539 116.627 4.34739C116.439 4.53212 116.185 4.63711 115.919 4.64019C115.654 4.63579 115.401 4.531 115.211 4.34739C115.102 4.25658 115.014 4.14247 114.955 4.01354C114.896 3.88461 114.867 3.74417 114.87 3.60267Z" fill="#2E2A29"/>
<path d="M133.394 11.2409V14.0034H126.012V12.3802C126.43 12.0111 126.823 11.6482 127.196 11.2918L128.29 10.2415L129.371 9.17857C129.732 8.82212 130.131 8.45294 130.562 8.08376H126.256V5.79867H127.75V6.49884H132.931V8.12195C132.502 8.49537 132.103 8.85819 131.734 9.21039C131.365 9.5626 131.006 9.91268 130.659 10.2606C130.305 10.6107 129.938 10.9544 129.571 11.3045C129.204 11.6546 128.805 12.0111 128.387 12.3802H131.907V11.2409H133.394Z" fill="#2E2A29"/>
<path d="M148.681 11.2409V14.0034H141.285V12.3802C141.704 12.0111 142.096 11.6482 142.469 11.2918C142.843 10.9354 143.203 10.5916 143.557 10.2415C143.911 9.89147 144.278 9.54138 144.638 9.17857C144.999 8.81575 145.404 8.45294 145.836 8.08376H141.523V5.79867H143.023V6.49884H148.172V8.12195C147.741 8.4975 147.348 8.86031 146.981 9.21039L145.9 10.2606L144.819 11.3045C144.452 11.6482 144.053 12.0111 143.634 12.3802H147.155V11.2409H148.681Z" fill="#2E2A29"/>
<path d="M156.088 17.4214H157.909C158.192 16.8486 158.476 16.2757 158.765 15.7029C159.055 15.13 159.351 14.5635 159.647 14.0034C159.132 13.0019 158.63 12.0153 158.141 11.0436L156.635 8.08376H154.936V6.49883H159.441V8.08376H158.334C158.727 8.81575 159.113 9.55411 159.505 10.2925C159.887 11.0091 160.212 11.754 160.477 12.5203C160.744 11.7563 161.064 11.0118 161.436 10.2925C161.822 9.55411 162.209 8.81575 162.601 8.08376H161.346V6.49883H165.98V8.08376H164.32C163.528 9.65595 162.73 11.2091 161.945 12.7494C161.159 14.2898 160.361 15.8493 159.57 17.4214H160.561V19H156.055L156.088 17.4214Z" fill="#2E2A29"/>
</g>
<defs>
<clipPath id="clip0_563_4881">
<rect width="166" height="19" fill="white"/>
</clipPath>
</defs>
</svg>
